<svg width="18" height="18" viewBox="0 0 18 18" fill="none" xmlns="http://www.w3.org/2000/svg">
<path d="M8.25968 1.5064C8.51568 0.831199 9.48448 0.831199 9.74128 1.5064L11.3973 6.09362C11.5133 6.39762 11.8085 6.60002 12.1381 6.60002H16.2077C16.9597 6.60002 17.2877 7.53602 16.6965 7.99443L13.8005 10.6C13.6708 10.6998 13.576 10.838 13.5297 10.995C13.4834 11.1519 13.488 11.3195 13.5429 11.4736L14.6005 15.9561C14.8581 16.6761 14.0245 17.2945 13.3941 16.8513L9.46048 14.3553C9.32577 14.2606 9.16513 14.2098 9.00048 14.2098C8.83583 14.2098 8.67519 14.2606 8.54048 14.3553L4.60687 16.8513C3.97726 17.2945 3.14286 16.6753 3.40046 15.9561L4.45807 11.4736C4.51293 11.3195 4.51755 11.1519 4.47127 10.995C4.42499 10.838 4.33019 10.6998 4.20046 10.6L1.30445 7.99443C0.712451 7.53602 1.04205 6.60002 1.79245 6.60002H5.86207C6.0223 6.60055 6.17892 6.55242 6.31121 6.462C6.44349 6.37157 6.5452 6.24311 6.60287 6.09362L8.25888 1.5064H8.25968Z" stroke="white" stroke-width="1.2" stroke-linecap="round" stroke-linejoin="round"/>
</svg>
