<svg width="16" height="16" viewBox="0 0 16 16" fill="none" xmlns="http://www.w3.org/2000/svg">
<path d="M1.74136 5.06156L1.60071 4.92092C0.478893 6.19418 0.0494843 7.43088 0.0410755 7.45611C-0.0136918 7.61916 -0.0136918 7.79564 0.0410755 7.95869C0.0577487 8.01109 1.8791 13.2647 7.93942 13.2647C8.59888 13.2647 9.20815 13.2017 9.77045 13.0907L9.60061 12.9208M1.74136 5.06156C1.21861 5.65664 0.850257 6.24318 0.607686 6.69508C0.476059 6.9403 0.381747 7.14536 0.320104 7.28987C0.289289 7.36211 0.266663 7.41916 0.251643 7.45846C0.237095 7.49652 0.229937 7.51726 0.229411 7.51879L0.22938 7.51888L0.229236 7.51931C0.188243 7.64135 0.188243 7.77344 0.229235 7.89549L0.230247 7.8985L0.230222 7.8985C0.230199 7.89843 0.230265 7.89862 0.230422 7.89907C0.233045 7.9066 0.261065 7.98705 0.319332 8.12404C0.380502 8.26785 0.474161 8.47196 0.604961 8.71614C0.866741 9.20482 1.27617 9.85187 1.86992 10.4969C3.05461 11.784 4.97469 13.0663 7.93942 13.0663C8.5349 13.0663 9.08774 13.0138 9.60061 12.9208M1.74136 5.06156C1.7846 5.01234 1.8289 4.96305 1.87428 4.91378L2.84377 5.88327M1.74136 5.06156L2.57102 5.89123M9.60061 12.9208C9.67981 12.9065 9.75805 12.8911 9.83536 12.8749L8.60714 11.6466M9.60061 12.9208L8.53113 11.8513M8.53113 11.8513C8.56169 11.8492 8.5921 11.8469 8.62237 11.8446L8.60714 11.6466M8.53113 11.8513L8.46679 11.787L8.60714 11.6466M8.53113 11.8513C8.34101 11.865 8.14496 11.8753 7.93942 11.8753C3.57149 11.8753 1.87443 8.72862 1.46445 7.78618L1.42949 7.70581L1.46533 7.62583C1.74737 6.99644 2.11997 6.41209 2.57102 5.89123M8.60714 11.6466C8.39039 11.6633 8.17046 11.6768 7.93942 11.6768C3.69092 11.6768 2.04504 8.62323 1.64647 7.707C1.94575 7.03913 2.34996 6.42343 2.84377 5.88327M2.57102 5.89123L2.70341 6.02362L2.84377 5.88327M2.57102 5.89123C2.61244 5.84339 2.65453 5.79609 2.69727 5.74934L2.84377 5.88327M4.14368 3.06851L4.24185 3.16665L4.36771 3.10812C5.34127 2.65539 6.51088 2.34775 7.93942 2.34775C10.9041 2.34775 12.8242 3.62999 14.009 4.91716C14.6028 5.56228 15.0123 6.20941 15.2742 6.69821C15.4051 6.94245 15.4988 7.14663 15.5601 7.29054C15.5907 7.36248 15.6132 7.41929 15.6281 7.45843C15.6433 7.49834 15.6502 7.5188 15.65 7.51803L15.6504 7.51931C15.6914 7.64135 15.6914 7.77344 15.6504 7.89548L15.6503 7.89592L15.6502 7.89604C15.6494 7.89832 15.638 7.93118 15.6145 7.9905C15.5902 8.05167 15.5536 8.14002 15.5033 8.25041C15.4028 8.47125 15.248 8.77983 15.0299 9.13521C14.5932 9.84658 13.9049 10.7415 12.8925 11.4971L12.7087 11.6343L12.8709 11.7965L15.3657 14.2913L14.5238 15.1333L0.513129 1.12266L1.3551 0.280689L4.14368 3.06851ZM11.7467 10.6723L11.8628 10.7884L11.9986 10.6961C13.4614 9.70123 14.1668 8.35343 14.4143 7.78639L14.4489 7.70713L14.4144 7.62782C14.0044 6.68544 12.3076 3.5391 7.94027 3.53869C7.08497 3.53145 6.23465 3.66959 5.42562 3.94722L5.12481 4.05044L5.34969 4.27531L6.78518 5.7108L6.88557 5.81119L7.01301 5.74862C7.29895 5.60822 7.60978 5.5236 7.93942 5.5236C9.13269 5.5236 10.1228 6.51373 10.1228 7.707C10.1228 8.03663 10.0382 8.34765 9.89833 8.63475L9.83635 8.76197L9.93642 8.86204L11.7467 10.6723Z" fill="white" stroke="#4E94F8" stroke-width="0.396982"/>
</svg>
